<svg width="25" height="25" viewBox="0 0 25 25" fill="none" xmlns="http://www.w3.org/2000/svg">
<path d="M19.7917 2.34375H7.29167C5.70833 2.34375 4.42708 3.625 4.42708 5.20833V6.51042H3.125C2.69792 6.51042 2.34375 6.86458 2.34375 7.29167C2.34375 7.71875 2.69792 8.07292 3.125 8.07292H4.42708V11.7188H3.125C2.69792 11.7188 2.34375 12.0729 2.34375 12.5C2.34375 12.9271 2.69792 13.2812 3.125 13.2812H4.42708V16.9271H3.125C2.69792 16.9271 2.34375 17.2812 2.34375 17.7083C2.34375 18.1354 2.69792 18.4896 3.125 18.4896H4.42708V19.7917C4.42708 21.375 5.70833 22.6562 7.29167 22.6562H19.7917C21.375 22.6562 22.6562 21.375 22.6562 19.7917V5.20833C22.6562 3.625 21.375 2.34375 19.7917 2.34375ZM21.0938 19.7917C21.0938 20.5104 20.5104 21.0938 19.7917 21.0938H7.29167C6.57292 21.0938 5.98958 20.5104 5.98958 19.7917V18.4896H6.25C6.67708 18.4896 7.03125 18.1354 7.03125 17.7083C7.03125 17.2812 6.67708 16.9271 6.25 16.9271H5.98958V13.2812H6.25C6.67708 13.2812 7.03125 12.9271 7.03125 12.5C7.03125 12.0729 6.67708 11.7188 6.25 11.7188H5.98958V8.07292H6.25C6.67708 8.07292 7.03125 7.71875 7.03125 7.29167C7.03125 6.86458 6.67708 6.51042 6.25 6.51042H5.98958V5.20833C5.98958 4.48958 6.57292 3.90625 7.29167 3.90625H19.7917C20.5104 3.90625 21.0938 4.48958 21.0938 5.20833V19.7917Z" fill="white"/>
<path d="M13.5417 12.2396C15.125 12.2396 16.4062 10.9583 16.4062 9.37501C16.4062 7.79167 15.125 6.51042 13.5417 6.51042C11.9583 6.51042 10.6771 7.79167 10.6771 9.37501C10.6771 10.9583 11.9583 12.2396 13.5417 12.2396ZM13.5417 8.07292C14.2604 8.07292 14.8437 8.65626 14.8437 9.37501C14.8437 10.0938 14.2604 10.6771 13.5417 10.6771C12.8229 10.6771 12.2396 10.0938 12.2396 9.37501C12.2396 8.65626 12.8229 8.07292 13.5417 8.07292ZM14.5833 13.8021H12.5C10.9167 13.8021 9.63541 15.0833 9.63541 16.6667V17.7083C9.63541 18.1354 9.98957 18.4896 10.4167 18.4896C10.8437 18.4896 11.1979 18.1354 11.1979 17.7083V16.6667C11.1979 15.9479 11.7812 15.3646 12.5 15.3646H14.5833C15.3021 15.3646 15.8854 15.9479 15.8854 16.6667V17.7083C15.8854 18.1354 16.2396 18.4896 16.6667 18.4896C17.0937 18.4896 17.4479 18.1354 17.4479 17.7083V16.6667C17.4479 15.0833 16.1667 13.8021 14.5833 13.8021Z" fill="white"/>
</svg>
