<svg width="17" height="17" viewBox="0 0 17 17" fill="none" xmlns="http://www.w3.org/2000/svg">
<path d="M3.4979 4.59044L4.87522 12.9098C4.93823 13.2907 5.13439 13.6368 5.42876 13.8865C5.72314 14.1363 6.09661 14.2734 6.48265 14.2735H8.665M13.031 4.59044L11.6543 12.9098C11.5913 13.2907 11.3951 13.6368 11.1008 13.8865C10.8064 14.1363 10.4329 14.2734 10.0469 14.2735H7.86454M6.97544 7.78639V11.0775M9.5541 7.78639V11.0775M2.23529 4.59044H14.2942M10.0749 4.59044V3.43018C10.0749 3.17086 9.9719 2.92216 9.78854 2.7388C9.60517 2.55544 9.35648 2.45242 9.09716 2.45242H7.43237C7.17306 2.45242 6.92436 2.55544 6.741 2.7388C6.55763 2.92216 6.45462 3.17086 6.45462 3.43018V4.59044H10.0749Z" stroke="#F05757" stroke-linecap="round" stroke-linejoin="round"/>
</svg>
