<svg width="16" height="17" viewBox="0 0 16 17" fill="none" xmlns="http://www.w3.org/2000/svg">
<path d="M12.6871 9.95374V12.8479C12.6869 13.2574 12.5242 13.6501 12.2346 13.9396C11.9451 14.2292 11.5524 14.3919 11.1429 14.3921H3.58097C3.37744 14.392 3.17593 14.3517 2.98802 14.2735C2.80011 14.1953 2.6295 14.0807 2.48601 13.9364C2.34252 13.792 2.22896 13.6208 2.15186 13.4324C2.07477 13.244 2.03565 13.0423 2.03677 12.8388V5.28529C2.03556 5.08208 2.07469 4.88065 2.1519 4.69268C2.22911 4.5047 2.34285 4.33392 2.48655 4.19022C2.63024 4.04653 2.80103 3.93278 2.989 3.85557C3.17698 3.77837 3.37841 3.73923 3.58162 3.74044H6.47512" stroke="black" stroke-linecap="round" stroke-linejoin="round"/>
<path d="M12.6871 6.40384L10.0243 3.74044M4.69885 10.8415V9.43031C4.70016 9.19761 4.79272 8.97403 4.95633 8.80911L11.1696 2.59582C11.2521 2.51245 11.3502 2.44627 11.4584 2.4011C11.5666 2.35593 11.6827 2.33267 11.7999 2.33267C11.9172 2.33267 12.0333 2.35593 12.1415 2.4011C12.2497 2.44627 12.3478 2.51245 12.4303 2.59582L13.8324 3.99792C13.9157 4.08036 13.9819 4.17852 14.0271 4.28672C14.0723 4.39491 14.0955 4.51099 14.0955 4.62824C14.0955 4.74549 14.0723 4.86157 14.0271 4.96976C13.9819 5.07796 13.9157 5.17612 13.8324 5.25857L7.61908 11.4719C7.45386 11.6359 7.23072 11.7284 6.99788 11.7293H5.58665C5.47002 11.7295 5.35449 11.7067 5.2467 11.6621C5.13891 11.6176 5.04098 11.5522 4.9585 11.4697C4.87603 11.3872 4.81064 11.2893 4.76608 11.1815C4.72153 11.0737 4.69868 10.9582 4.69885 10.8415Z" stroke="black" stroke-linecap="round" stroke-linejoin="round"/>
</svg>
