<svg width="18" height="4" viewBox="0 0 18 4" fill="none" xmlns="http://www.w3.org/2000/svg">
<path d="M2 0C0.895447 0 0 0.895447 0 2C0 3.10455 0.895447 4 2 4C3.104 3.9986 3.9986 3.104 4 2C4 0.895447 3.10455 0 2 0ZM2 3C1.44769 3 1 2.55231 1 2C1 1.44769 1.44769 1 2 1C2.55212 1.00037 2.99963 1.44788 3 2C3 2.55231 2.55231 3 2 3ZM9 0C7.89545 0 7 0.895447 7 2C7 3.10455 7.89545 4 9 4C10.104 3.9986 10.9986 3.104 11 2C11 0.895447 10.1046 0 9 0ZM9 3C8.44769 3 8 2.55231 8 2C8 1.44769 8.44769 1 9 1C9.55212 1.00037 9.99963 1.44788 10 2C10 2.55231 9.55231 3 9 3ZM16 0C14.8954 0 14 0.895447 14 2C14 3.10455 14.8954 4 16 4C17.104 3.9986 17.9986 3.104 18 2C18 0.895447 17.1046 0 16 0ZM16 3C15.4477 3 15 2.55231 15 2C15 1.44769 15.4477 1 16 1C16.5521 1.00037 16.9996 1.44788 17 2C17 2.55231 16.5523 3 16 3Z" fill="black"/>
</svg>
