<svg width="49" height="50" viewBox="0 0 49 50" fill="none" xmlns="http://www.w3.org/2000/svg">
<path d="M22.1436 33.4102L29.5276 26.0261C29.6974 25.8563 29.8162 25.6866 29.8841 25.5168C29.952 25.3471 29.986 25.1604 29.986 24.9567C29.986 24.753 29.952 24.5662 29.8841 24.3965C29.8162 24.2268 29.6974 24.057 29.5276 23.8873L22.1436 16.5032C22.0417 16.4013 21.931 16.3253 21.8115 16.275C21.692 16.2248 21.5651 16.199 21.4306 16.1976C21.159 16.1976 20.9214 16.2913 20.7177 16.4787C20.514 16.6661 20.4121 16.9119 20.4121 17.2161V32.6972C20.4121 33.0028 20.514 33.2492 20.7177 33.4366C20.9214 33.624 21.159 33.7171 21.4306 33.7157C21.4985 33.7157 21.7362 33.6139 22.1436 33.4102Z" fill="#B3AFAF"/>
</svg>
