<svg width="18" height="21" viewBox="0 0 18 21" fill="none" xmlns="http://www.w3.org/2000/svg">
<g clip-path="url(#clip0_10_769)">
<path fill-rule="evenodd" clip-rule="evenodd" d="M13.5 14.7H4.5V8.4C4.5 5.6007 6.75 4.2 8.99894 4.2H9.00106C11.25 4.2 13.5 5.6007 13.5 8.4V14.7ZM10.1245 17.85C10.1245 18.4296 9.62047 18.9 9 18.9C8.37847 18.9 7.87447 18.4296 7.87447 17.85V16.8H10.1245V17.85ZM15.75 12.6V8.4C15.75 4.66935 13.086 2.59875 10.1245 2.18295V0H7.87447V2.18295C4.914 2.59875 2.25 4.66935 2.25 8.4V12.6C2.25 13.7602 1.24412 14.7 0 14.7V16.8H5.62553V17.85C5.62553 19.5898 7.13541 21 9 21C10.8635 21 12.3755 19.5898 12.3755 17.85V16.8H18V14.7C16.7569 14.7 15.75 13.7602 15.75 12.6Z" fill="white"/>
</g>
<defs>
<clipPath id="clip0_10_769">
<rect width="18" height="21" fill="white"/>
</clipPath>
</defs>
</svg>
