<svg width="26" height="26" viewBox="0 0 26 26" fill="none" xmlns="http://www.w3.org/2000/svg">
<path fill-rule="evenodd" clip-rule="evenodd" d="M10.8333 22.75H15.1667C15.7647 22.75 16.25 22.2647 16.25 21.6667C16.25 21.0687 15.7647 20.5833 15.1667 20.5833H10.8333C10.2353 20.5833 9.75001 21.0687 9.75001 21.6667C9.75001 22.2647 10.2353 22.75 10.8333 22.75ZM19.5 12.7443V8.6645C19.5 5.07542 16.5913 2.16667 13.0022 2.16667H12.9978C9.40874 2.16667 6.50001 5.07542 6.50001 8.6645V12.7443L4.44816 16.8491C4.28024 17.1849 4.29758 17.5836 4.49474 17.9032C4.69299 18.2228 5.04076 18.4167 5.41667 18.4167H20.5833C20.9593 18.4167 21.307 18.2228 21.5053 17.9032C21.7024 17.5836 21.7198 17.1849 21.5519 16.8491L19.5 12.7443ZM17.3333 13C17.3333 13.1679 17.3723 13.3337 17.4482 13.4843L18.8305 16.25H7.16952L8.55185 13.4843C8.62769 13.3337 8.66667 13.1679 8.66667 13V8.6645C8.66667 6.2725 10.6058 4.33334 12.9978 4.33334H13.0022C15.3942 4.33334 17.3333 6.2725 17.3333 8.6645V13Z" fill="white"/>
</svg>
