<svg width="12" height="14" viewBox="0 0 12 14" fill="none" xmlns="http://www.w3.org/2000/svg">
<path d="M5.65422 0C4.00122 0 2.65423 1.346 2.65423 3V5C2.65423 6.148 3.31122 7.138 4.26423 7.642C1.88123 8.248 0.0782251 10.37 0.000225065 12.947C-0.00178321 13.0139 0.0096655 13.0805 0.0338922 13.143C0.0581188 13.2054 0.09463 13.2623 0.141261 13.3103C0.187892 13.3583 0.243692 13.3965 0.305354 13.4226C0.367016 13.4486 0.433283 13.462 0.500225 13.462L10.8082 13.478C10.8751 13.478 10.9413 13.4646 11.0029 13.4386C11.0645 13.4126 11.1202 13.3746 11.1668 13.3266C11.2134 13.2787 11.25 13.2219 11.2743 13.1596C11.2985 13.0974 11.3101 13.0308 11.3082 12.964C11.2728 11.7339 10.8375 10.5487 10.0683 9.58809C9.29911 8.62745 8.23785 7.94357 7.04522 7.64C7.52844 7.38825 7.93372 7.00928 8.21728 6.54401C8.50085 6.07875 8.65193 5.54486 8.65423 5V3C8.65423 1.346 7.30722 0 5.65422 0ZM5.65422 1C6.77122 1 7.65422 1.883 7.65422 3V5C7.65422 6.116 6.77122 7 5.65422 7C4.53722 7 3.65423 6.116 3.65423 5V3C3.65423 1.883 4.53722 1 5.65422 1ZM5.79423 8.464V8.466C8.08323 8.536 9.87722 10.263 10.1942 12.478L1.11923 12.46C1.45823 10.15 3.40123 8.391 5.79423 8.464Z" fill="black"/>
</svg>
