<svg width="10" height="18" viewBox="0 0 10 18" fill="none" xmlns="http://www.w3.org/2000/svg">
<path d="M7.87755 17.4102L0.493477 10.0261C0.323728 9.85634 0.204905 9.68659 0.137006 9.51684C0.0691064 9.34709 0.0351562 9.16037 0.0351562 8.95667C0.0351563 8.75297 0.0691064 8.56625 0.137006 8.3965C0.204905 8.22675 0.323728 8.057 0.493477 7.88725L7.87755 0.50318C7.9794 0.401331 8.09007 0.325283 8.20957 0.275038C8.32908 0.224792 8.45605 0.19899 8.59049 0.197632C8.86209 0.197632 9.09974 0.291333 9.30344 0.478736C9.50714 0.666139 9.60898 0.911935 9.60898 1.21612V16.6972C9.60898 17.0028 9.50714 17.2492 9.30344 17.4366C9.09974 17.624 8.86209 17.7171 8.59049 17.7157C8.52259 17.7157 8.28494 17.6139 7.87755 17.4102Z" fill="#B3AFAF"/>
</svg>
