<svg width="49" height="50" viewBox="0 0 49 50" fill="none" xmlns="http://www.w3.org/2000/svg">
<path d="M26.8775 33.4102L19.4935 26.0261C19.3237 25.8563 19.2049 25.6866 19.137 25.5168C19.0691 25.3471 19.0352 25.1604 19.0352 24.9567C19.0352 24.753 19.0691 24.5662 19.137 24.3965C19.2049 24.2268 19.3237 24.057 19.4935 23.8873L26.8775 16.5032C26.9794 16.4013 27.0901 16.3253 27.2096 16.275C27.3291 16.2248 27.4561 16.199 27.5905 16.1976C27.8621 16.1976 28.0997 16.2913 28.3034 16.4787C28.5071 16.6661 28.609 16.9119 28.609 17.2161V32.6972C28.609 33.0028 28.5071 33.2492 28.3034 33.4366C28.0997 33.624 27.8621 33.7171 27.5905 33.7157C27.5226 33.7157 27.2849 33.6139 26.8775 33.4102Z" fill="#B3AFAF"/>
</svg>
