<svg width="29" height="29" viewBox="0 0 29 29" fill="none" xmlns="http://www.w3.org/2000/svg">
<path d="M8.79141 16.1906C8.81697 16.2418 8.85344 16.2867 8.89826 16.3222C8.94308 16.3577 8.99514 16.3829 9.05078 16.3961C9.08025 16.4028 9.11039 16.4062 9.14062 16.4062C9.22514 16.4062 9.30738 16.3788 9.375 16.3281L12.5 13.9844C12.541 13.9536 12.5756 13.915 12.6017 13.8709C12.6279 13.8268 12.6451 13.7779 12.6523 13.7271C12.6596 13.6763 12.6568 13.6246 12.644 13.5749C12.6313 13.5252 12.6089 13.4785 12.5781 13.4375C12.5473 13.3965 12.5088 13.3619 12.4646 13.3357C12.4205 13.3096 12.3716 13.2924 12.3209 13.2852C12.2701 13.2779 12.2184 13.2807 12.1687 13.2935C12.119 13.3062 12.0723 13.3286 12.0312 13.3594L9.28125 15.4219L8.70937 14.2781C8.66306 14.1854 8.58182 14.1149 8.48351 14.0821C8.3852 14.0492 8.27788 14.0568 8.18516 14.1031C8.09243 14.1494 8.02191 14.2307 7.98909 14.329C7.95627 14.4273 7.96385 14.5346 8.01016 14.6273L8.79141 16.1906ZM8.79141 10.7219C8.81697 10.773 8.85344 10.8179 8.89826 10.8534C8.94308 10.8889 8.99514 10.9142 9.05078 10.9273C9.08025 10.9341 9.11039 10.9375 9.14062 10.9375C9.22514 10.9375 9.30738 10.9101 9.375 10.8594L12.5 8.51562C12.5829 8.45346 12.6377 8.36092 12.6523 8.25837C12.667 8.15581 12.6403 8.05163 12.5781 7.96875C12.516 7.88587 12.4234 7.83108 12.3209 7.81642C12.2183 7.80177 12.1141 7.82846 12.0312 7.89062L9.28125 9.95312L8.70937 8.80937C8.66306 8.71665 8.58182 8.64612 8.48351 8.6133C8.3852 8.58048 8.27788 8.58806 8.18516 8.63437C8.09243 8.68068 8.02191 8.76193 7.98909 8.86024C7.95627 8.95855 7.96385 9.06587 8.01016 9.15859L8.79141 10.7219ZM12.5711 18.8969C12.5064 18.8166 12.4126 18.7652 12.3102 18.7538C12.2078 18.7424 12.105 18.7719 12.0242 18.8359L10.3125 20.2023L8.60391 18.8352C8.56384 18.8031 8.51786 18.7792 8.46857 18.7649C8.41929 18.7507 8.36768 18.7462 8.31668 18.7519C8.26568 18.7575 8.21629 18.7732 8.17134 18.7979C8.12639 18.8227 8.08675 18.856 8.05469 18.8961C8.02263 18.9362 7.99877 18.9821 7.98448 19.0314C7.97019 19.0807 7.96575 19.1323 7.97141 19.1833C7.97707 19.2343 7.99272 19.2837 8.01746 19.3287C8.0422 19.3736 8.07556 19.4132 8.11562 19.4453L9.6875 20.7031L8.11562 21.9601C8.03471 22.0249 7.98284 22.1191 7.97141 22.2221C7.95998 22.3251 7.98994 22.4285 8.05469 22.5094C8.11944 22.5903 8.21368 22.6422 8.31668 22.6536C8.41967 22.665 8.52299 22.6351 8.60391 22.5703L10.3125 21.2039L12.0219 22.5711C12.1028 22.6358 12.2061 22.6658 12.3091 22.6544C12.4121 22.6429 12.5063 22.5911 12.5711 22.5102C12.6358 22.4292 12.6658 22.3259 12.6544 22.2229C12.6429 22.1199 12.5911 22.0257 12.5102 21.9609L10.9375 20.7031L12.5094 19.4461C12.5495 19.4141 12.5829 19.3745 12.6078 19.3296C12.6326 19.2847 12.6483 19.2353 12.6541 19.1843C12.6598 19.1333 12.6554 19.0816 12.6412 19.0323C12.6269 18.983 12.6031 18.937 12.5711 18.8969ZM8.79141 5.25312C8.81697 5.30427 8.85344 5.34918 8.89826 5.38468C8.94308 5.42018 8.99514 5.44541 9.05078 5.45859C9.08025 5.46534 9.11039 5.46874 9.14062 5.46875C9.22514 5.46875 9.30738 5.44134 9.375 5.39062L12.5 3.04687C12.541 3.0161 12.5756 2.97754 12.6017 2.9334C12.6279 2.88925 12.6451 2.8404 12.6523 2.78962C12.6596 2.73884 12.6568 2.68712 12.644 2.63743C12.6313 2.58774 12.6089 2.54104 12.5781 2.5C12.5473 2.45896 12.5088 2.42439 12.4646 2.39825C12.4205 2.37212 12.3716 2.35493 12.3209 2.34768C12.2701 2.34042 12.2184 2.34324 12.1687 2.35597C12.119 2.3687 12.0723 2.3911 12.0312 2.42187L9.28125 4.48437L8.70859 3.34062C8.68566 3.29471 8.65391 3.25377 8.61516 3.22013C8.57641 3.18648 8.53141 3.16081 8.48273 3.14456C8.43405 3.1283 8.38265 3.1218 8.33146 3.12542C8.28026 3.12903 8.23029 3.14269 8.18437 3.16562C8.13846 3.18855 8.09752 3.2203 8.06388 3.25906C8.03023 3.29781 8.00456 3.34281 7.98831 3.39149C7.97206 3.44017 7.96555 3.49157 7.96917 3.54276C7.97278 3.59395 7.98644 3.64393 8.00937 3.68984L8.79141 5.25312ZM14.6094 3.90625H16.9531C17.0567 3.90625 17.1561 3.86509 17.2293 3.79184C17.3026 3.71858 17.3437 3.61922 17.3437 3.51562C17.3437 3.41202 17.3026 3.31267 17.2293 3.23941C17.1561 3.16615 17.0567 3.125 16.9531 3.125H14.6094C14.5058 3.125 14.4064 3.16615 14.3332 3.23941C14.2599 3.31267 14.2187 3.41202 14.2187 3.51562C14.2187 3.61922 14.2599 3.71858 14.3332 3.79184C14.4064 3.86509 14.5058 3.90625 14.6094 3.90625ZM14.6094 5.46875H16.9531C17.0567 5.46875 17.1561 5.42759 17.2293 5.35434C17.3026 5.28108 17.3437 5.18172 17.3437 5.07812C17.3437 4.97452 17.3026 4.87517 17.2293 4.80191C17.1561 4.72865 17.0567 4.6875 16.9531 4.6875H14.6094C14.5058 4.6875 14.4064 4.72865 14.3332 4.80191C14.2599 4.87517 14.2187 4.97452 14.2187 5.07812C14.2187 5.18172 14.2599 5.28108 14.3332 5.35434C14.4064 5.42759 14.5058 5.46875 14.6094 5.46875ZM21.6406 21.0937H14.6094C14.5058 21.0937 14.4064 21.1349 14.3332 21.2082C14.2599 21.2814 14.2187 21.3808 14.2187 21.4844C14.2187 21.588 14.2599 21.6873 14.3332 21.7606C14.4064 21.8338 14.5058 21.875 14.6094 21.875H21.6406C21.7442 21.875 21.8436 21.8338 21.9168 21.7606C21.9901 21.6873 22.0312 21.588 22.0312 21.4844C22.0312 21.3808 21.9901 21.2814 21.9168 21.2082C21.8436 21.1349 21.7442 21.0937 21.6406 21.0937ZM14.2187 8.98437C14.2187 9.08797 14.2599 9.18733 14.3332 9.26059C14.4064 9.33384 14.5058 9.375 14.6094 9.375H21.6406C21.7442 9.375 21.8436 9.33384 21.9168 9.26059C21.9901 9.18733 22.0312 9.08797 22.0312 8.98437C22.0312 8.88077 21.9901 8.78142 21.9168 8.70816C21.8436 8.6349 21.7442 8.59375 21.6406 8.59375H14.6094C14.5058 8.59375 14.4064 8.6349 14.3332 8.70816C14.2599 8.78142 14.2187 8.88077 14.2187 8.98437ZM21.6406 19.5312H14.6094C14.5058 19.5312 14.4064 19.5724 14.3332 19.6457C14.2599 19.7189 14.2187 19.8183 14.2187 19.9219C14.2187 20.0255 14.2599 20.1248 14.3332 20.1981C14.4064 20.2713 14.5058 20.3125 14.6094 20.3125H21.6406C21.7442 20.3125 21.8436 20.2713 21.9168 20.1981C21.9901 20.1248 22.0312 20.0255 22.0312 19.9219C22.0312 19.8183 21.9901 19.7189 21.9168 19.6457C21.8436 19.5724 21.7442 19.5312 21.6406 19.5312ZM21.6406 10.1562H14.6094C14.5058 10.1562 14.4064 10.1974 14.3332 10.2707C14.2599 10.3439 14.2187 10.4433 14.2187 10.5469C14.2187 10.6505 14.2599 10.7498 14.3332 10.8231C14.4064 10.8963 14.5058 10.9375 14.6094 10.9375H21.6406C21.7442 10.9375 21.8436 10.8963 21.9168 10.8231C21.9901 10.7498 22.0312 10.6505 22.0312 10.5469C22.0312 10.4433 21.9901 10.3439 21.9168 10.2707C21.8436 10.1974 21.7442 10.1562 21.6406 10.1562ZM24.032 5.35469L19.0203 0.342969C18.8001 0.124216 18.5026 0.00100098 18.1922 0L7.57812 0C7.06012 0 6.56334 0.205775 6.19706 0.572057C5.83078 0.938339 5.625 1.43512 5.625 1.95312V23.0469C5.625 23.5649 5.83078 24.0617 6.19706 24.4279C6.56334 24.7942 7.06012 25 7.57812 25H22.4219C22.9399 25 23.4367 24.7942 23.8029 24.4279C24.1692 24.0617 24.375 23.5649 24.375 23.0469V6.18359C24.3755 6.02962 24.3454 5.87708 24.2865 5.7348C24.2276 5.59252 24.1411 5.46333 24.032 5.35469ZM18.9062 1.33359L23.0406 5.46875H20.0781C19.7673 5.46875 19.4693 5.34528 19.2495 5.12551C19.0297 4.90575 18.9062 4.60767 18.9062 4.29687V1.33359ZM23.5937 23.0469C23.5937 23.3577 23.4703 23.6557 23.2505 23.8755C23.0307 24.0953 22.7327 24.2187 22.4219 24.2187H7.57812C7.26732 24.2187 6.96925 24.0953 6.74948 23.8755C6.52971 23.6557 6.40625 23.3577 6.40625 23.0469V1.95312C6.40625 1.64232 6.52971 1.34425 6.74948 1.12448C6.96925 0.904715 7.26732 0.78125 7.57812 0.78125H18.125V4.29687C18.125 4.81487 18.3308 5.31166 18.6971 5.67794C19.0633 6.04422 19.5601 6.25 20.0781 6.25H23.5937V23.0469ZM21.6406 15.625H14.6094C14.5058 15.625 14.4064 15.6662 14.3332 15.7394C14.2599 15.8127 14.2187 15.912 14.2187 16.0156C14.2187 16.1192 14.2599 16.2186 14.3332 16.2918C14.4064 16.3651 14.5058 16.4062 14.6094 16.4062H21.6406C21.7442 16.4062 21.8436 16.3651 21.9168 16.2918C21.9901 16.2186 22.0312 16.1192 22.0312 16.0156C22.0312 15.912 21.9901 15.8127 21.9168 15.7394C21.8436 15.6662 21.7442 15.625 21.6406 15.625ZM21.6406 14.0625H14.6094C14.5058 14.0625 14.4064 14.1037 14.3332 14.1769C14.2599 14.2502 14.2187 14.3495 14.2187 14.4531C14.2187 14.5567 14.2599 14.6561 14.3332 14.7293C14.4064 14.8026 14.5058 14.8437 14.6094 14.8437H21.6406C21.7442 14.8437 21.8436 14.8026 21.9168 14.7293C21.9901 14.6561 22.0312 14.5567 22.0312 14.4531C22.0312 14.3495 21.9901 14.2502 21.9168 14.1769C21.8436 14.1037 21.7442 14.0625 21.6406 14.0625Z" fill="white"/>
</svg>
