<svg width="12" height="12" viewBox="0 0 12 12" fill="none" xmlns="http://www.w3.org/2000/svg">
<path fill-rule="evenodd" clip-rule="evenodd" d="M2 5.5C2 3.567 3.567 2 5.5 2C7.433 2 8.99999 3.567 8.99999 5.5C8.99999 7.433 7.433 8.99999 5.5 8.99999C3.567 8.99999 2 7.433 2 5.5ZM5.5 1C3.01472 1 1 3.01472 1 5.5C1 7.9853 3.01472 9.99999 5.5 9.99999C6.5625 9.99999 7.539 9.63174 8.30885 9.01594L10.1464 10.8535C10.3417 11.0488 10.6583 11.0488 10.8535 10.8535C11.0488 10.6583 11.0488 10.3417 10.8535 10.1464L9.01594 8.30885C9.63174 7.539 9.99999 6.5625 9.99999 5.5C9.99999 3.01472 7.9853 1 5.5 1Z" fill="#2CB6AB"/>
</svg>
