<svg width="24" height="24" viewBox="0 0 24 24" fill="none" xmlns="http://www.w3.org/2000/svg">
<path d="M9.2 13C8.5 13 7.7 12.8 7.1 12.4C5.8 11.5 5 9.6 5 7.2C5 4.9 6.9 3 9.2 3C11.5 3 13.4 4.9 13.4 7.2C13.4 9.6 12.6 11.5 11.2 12.4C10.7 12.8 9.9 13 9.2 13ZM9.2 5C8 5 7 6 7 7.2C7 8.9 7.5 10.2 8.3 10.7C8.9 11.1 9.6 11.1 10.2 10.7C11 10.2 11.5 8.9 11.5 7.2C11.4 6 10.4 5 9.2 5Z" fill="white"/>
<path d="M9.2 21C7.3 21 1 20.8 1 17.6C1 14.2 3.8 13.3 5.7 12.7C5.9 12.6 6.4 12.5 6.7 11.3L8.7 11.7C8.3 13.6 7.3 14.3 6.4 14.6C3.7 15.4 3 16.1 3 17.6C3 18.2 5.9 19 9.2 19C12.5 19 15.4 18.2 15.4 17.6C15.4 16.1 14.7 15.4 12.1 14.5C11.3 14.2 10.2 13.5 9.8 11.6L11.8 11.2C12 12.3 12.6 12.5 12.7 12.6C14.6 13.2 17.4 14.2 17.4 17.5C17.4 20.8 11.1 21 9.2 21ZM17 12.8C16.4 12.8 15.9 12.6 15.4 12.3C14.4 11.6 13.8 10.3 13.8 8.5C13.8 6.7 15.2 5.3 17 5.3C18.8 5.3 20.2 6.7 20.2 8.5C20.2 10.3 19.6 11.7 18.6 12.4C18.1 12.6 17.6 12.8 17 12.8ZM17 7.2C16.3 7.2 15.8 7.7 15.8 8.4C15.8 9.5 16.1 10.3 16.5 10.6C16.8 10.8 17.2 10.8 17.4 10.6C17.9 10.3 18.2 9.5 18.2 8.4C18.2 7.8 17.7 7.2 17 7.2Z" fill="white"/>
<path d="M13.5 14.6L12.3 13C12.9 12.5 13.6 12.2 14.5 12C14.6 12 14.8 11.9 14.9 11.3L16.9 11.7C16.7 12.8 16.1 13.6 15.1 13.9C14.5 14 13.9 14.3 13.5 14.6ZM17 18.3H16.3L16.4 16.3H17C18.7 16.3 20.6 15.9 21 15.6C21 14.8 20.6 14.4 18.9 13.8C18 13.5 17.3 12.7 17.1 11.6L19.1 11.2C19.2 11.8 19.5 11.9 19.6 11.9C20.9 12.3 23.1 13 23.1 15.6C23 18.1 18.8 18.3 17 18.3Z" fill="white"/>
</svg>
