<svg width="22" height="21" viewBox="0 0 22 21" fill="none" xmlns="http://www.w3.org/2000/svg">
<path d="M19.9 7L13.2 1.74C12.5858 1.24805 11.7907 0.976068 10.9667 0.976068C10.1426 0.976068 9.34753 1.24805 8.73334 1.74L2.03334 7C1.67865 7.28407 1.39561 7.63256 1.20306 8.02224C1.01052 8.41193 0.912888 8.83388 0.916671 9.26V18C0.916671 18.7956 1.26962 19.5587 1.89786 20.1213C2.52611 20.6839 3.3782 21 4.26667 21H17.6667C18.5551 21 19.4072 20.6839 20.0355 20.1213C20.6637 19.5587 21.0167 18.7956 21.0167 18V9.25C21.0189 8.82556 20.9205 8.40554 20.728 8.01768C20.5355 7.62982 20.2533 7.28296 19.9 7ZM13.2 19H8.73334V14C8.73334 13.7348 8.85099 13.4804 9.0604 13.2929C9.26982 13.1054 9.55385 13 9.85 13H12.0833C12.3795 13 12.6635 13.1054 12.8729 13.2929C13.0824 13.4804 13.2 13.7348 13.2 14V19ZM18.7833 18C18.7833 18.2652 18.6657 18.5196 18.4563 18.7071C18.2469 18.8946 17.9628 19 17.6667 19H15.4333V14C15.4333 13.2044 15.0804 12.4413 14.4521 11.8787C13.8239 11.3161 12.9718 11 12.0833 11H9.85C8.96153 11 8.10944 11.3161 7.4812 11.8787C6.85295 12.4413 6.5 13.2044 6.5 14V19H4.26667C3.97051 19 3.68648 18.8946 3.47707 18.7071C3.26765 18.5196 3.15 18.2652 3.15 18V9.25C3.15021 9.10801 3.18417 8.9677 3.24963 8.83838C3.31509 8.70906 3.41056 8.59371 3.52967 8.5L10.2297 3.25C10.4334 3.08968 10.6954 3.00127 10.9667 3.00127C11.2379 3.00127 11.4999 3.08968 11.7037 3.25L18.4037 8.5C18.5228 8.59371 18.6182 8.70906 18.6837 8.83838C18.7492 8.9677 18.7831 9.10801 18.7833 9.25V18Z" fill="white"/>
</svg>
